<svg width="23.000000" height="24.000000" viewBox="0 0 23 24" fill="none" xmlns="http://www.w3.org/2000/svg" xmlns:xlink="http://www.w3.org/1999/xlink">
	<desc>
			Created with Pixso.
	</desc>
	<defs/>
	<path d="M3.08 5.04L-0.52 1.5L1.05 -0.05L4.65 3.5L21.57 3.5C21.74 3.5 21.91 3.54 22.07 3.61C22.22 3.69 22.36 3.8 22.46 3.94C22.56 4.07 22.63 4.23 22.66 4.4C22.69 4.57 22.68 4.74 22.63 4.9L19.97 13.64C19.9 13.86 19.76 14.06 19.57 14.2C19.38 14.34 19.15 14.42 18.91 14.42L5.3 14.42L5.3 16.6L17.51 16.6L17.51 18.79L4.19 18.79C3.9 18.79 3.61 18.67 3.41 18.47C3.2 18.26 3.08 17.98 3.08 17.69L3.08 5.04ZM5.3 5.68L5.3 12.23L18.08 12.23L20.08 5.68L5.3 5.68ZM4.75 23.16C4.3 23.16 3.88 22.98 3.57 22.68C3.26 22.37 3.08 21.95 3.08 21.52C3.08 21.08 3.26 20.67 3.57 20.36C3.88 20.05 4.3 19.88 4.75 19.88C5.19 19.88 5.61 20.05 5.92 20.36C6.24 20.67 6.41 21.08 6.41 21.52C6.41 21.95 6.24 22.37 5.92 22.68C5.61 22.98 5.19 23.16 4.75 23.16ZM18.07 23.16C17.63 23.16 17.2 22.98 16.89 22.68C16.58 22.37 16.4 21.95 16.4 21.52C16.4 21.08 16.58 20.67 16.89 20.36C17.2 20.05 17.63 19.88 18.07 19.88C18.51 19.88 18.93 20.05 19.24 20.36C19.56 20.67 19.73 21.08 19.73 21.52C19.73 21.95 19.56 22.37 19.24 22.68C18.93 22.98 18.51 23.16 18.07 23.16Z" fill="#838383" fill-opacity="1.000000" fill-rule="nonzero"/>
</svg>
