<svg width="20.000000" height="17.000000" viewBox="0 0 20 17" fill="none" xmlns="http://www.w3.org/2000/svg" xmlns:xlink="http://www.w3.org/1999/xlink">
	<desc>
			Created with Pixso.
	</desc>
	<defs/>
	<path d="M14.88 3.39L19.86 3.39L19.86 5.1L17.87 5.1L17.87 16.15C17.87 16.37 17.76 16.59 17.58 16.75C17.39 16.91 17.14 17 16.87 17L2.92 17C2.66 17 2.41 16.91 2.22 16.75C2.03 16.59 1.93 16.37 1.93 16.15L1.93 5.1L-0.07 5.1L-0.07 3.39L4.92 3.39L4.92 0.85C4.92 0.62 5.02 0.4 5.21 0.24C5.39 0.08 5.65 0 5.91 0L13.88 0C14.15 0 14.4 0.08 14.59 0.24C14.77 0.4 14.88 0.62 14.88 0.85L14.88 3.39ZM15.88 5.1L3.92 5.1L3.92 15.3L15.88 15.3L15.88 5.1ZM11.31 10.2L13.07 11.7L11.66 12.9L9.9 11.4L8.14 12.9L6.73 11.7L8.49 10.2L6.73 8.69L8.14 7.49L9.9 8.99L11.66 7.49L13.07 8.69L11.31 10.2ZM6.91 1.7L6.91 3.39L12.89 3.39L12.89 1.7L6.91 1.7Z" fill="#DF6464" fill-opacity="1.000000" fill-rule="nonzero"/>
</svg>
