<svg width="62.000000" height="60.000000" viewBox="0 0 62 60" fill="none" xmlns="http://www.w3.org/2000/svg" xmlns:xlink="http://www.w3.org/1999/xlink">
	<desc>
			Created with Pixso.
	</desc>
	<defs/>
	<path id="Vector" d="M30.48 21.65C33.07 19.37 37.06 19.44 39.55 21.9C42.04 24.35 42.12 28.26 39.81 30.81L30.48 40L21.15 30.81C18.84 28.26 18.93 24.34 21.41 21.9C23.91 19.45 27.89 19.36 30.48 21.65ZM37.99 23.42C36.34 21.8 33.68 21.73 31.95 23.26L30.48 24.56L29.01 23.26C27.28 21.73 24.62 21.8 22.97 23.43C21.33 25.04 21.25 27.62 22.76 29.32L30.48 36.93L38.2 29.33C39.71 27.62 39.63 25.04 37.99 23.42Z" fill="#838383" fill-opacity="1.000000" fill-rule="nonzero"/>
</svg>
