<svg width="20.000000" height="20.000000" viewBox="0 0 20 20" fill="none" xmlns="http://www.w3.org/2000/svg" xmlns:xlink="http://www.w3.org/1999/xlink">
	<desc>
			Created with Pixso.
	</desc>
	<defs>
		<clipPath id="clip2_188">
			<rect id="Lang" width="20.000000" height="20.000000" fill="white" fill-opacity="0"/>
		</clipPath>
	</defs>
	<rect id="Lang" width="20.000000" height="20.000000" fill="#FFFFFF" fill-opacity="0"/>
	<g clip-path="url(#clip2_188)">
		<path id="Vector" d="M9.99 18.33C14.6 18.33 18.33 14.6 18.33 10C18.33 5.39 14.6 1.66 9.99 1.66C5.39 1.66 1.66 5.39 1.66 10C1.66 14.6 5.39 18.33 9.99 18.33Z" stroke="#838383" stroke-opacity="1.000000" stroke-width="1.500000" stroke-linejoin="round"/>
		<path id="Vector" d="M10.83 1.7C10.83 1.7 13.33 5 13.33 10C13.33 15 10.83 18.29 10.83 " stroke="#838383" stroke-opacity="1.000000" stroke-width="1.500000" stroke-linejoin="round" stroke-linecap="round"/>
		<path id="Vector" d="M9.16 18.29C9.16 18.29 6.66 15 6.66 10C6.66 5 9.16 1.7 9.16 " stroke="#838383" stroke-opacity="1.000000" stroke-width="1.500000" stroke-linejoin="round" stroke-linecap="round"/>
		<path id="Vector" d="M2.19 12.91L17.8 " stroke="#838383" stroke-opacity="1.000000" stroke-width="1.500000" stroke-linejoin="round" stroke-linecap="round"/>
		<path id="Vector" d="M2.19 7.08L17.8 " stroke="#838383" stroke-opacity="1.000000" stroke-width="1.500000" stroke-linejoin="round" stroke-linecap="round"/>
	</g>
</svg>
